<svg xmlns="http://www.w3.org/2000/svg" width="26.916" height="28.5" viewBox="0 0 26.916 28.5">
    <path data-name="Path 69" d="M7.36 20.326a.4.4 0 0 0 .428-.428v-.727a.428.428 0 0 0-.856 0v.727a.4.4 0 0 0 .428.428z"/>
    <path data-name="Path 70" d="M9.372 20.326a.4.4 0 0 0 .428-.428v-.727a.428.428 0 0 0-.856 0v.727a.429.429 0 0 0 .428.428z"/>
    <path data-name="Path 71" d="M11.426 20.326a.4.4 0 0 0 .428-.428v-.727a.428.428 0 0 0-.856 0v.727a.4.4 0 0 0 .428.428z"/>
    <path data-name="Path 72" d="M13.48 20.326a.4.4 0 0 0 .428-.428v-.727a.428.428 0 0 0-.856 0v.727a.4.4 0 0 0 .428.428z"/>
    <path data-name="Path 73" d="M5.135 3.766a.4.4 0 0 0 .428-.428v-.727a.428.428 0 0 0-.856 0v.727a.429.429 0 0 0 .428.428z"/>
    <path data-name="Path 74" d="M7.189 3.766a.4.4 0 0 0 .428-.428v-.727a.428.428 0 1 0-.856 0v.727a.429.429 0 0 0 .428.428z"/>
    <path data-name="Path 75" d="M9.243 3.766a.4.4 0 0 0 .428-.428v-.727a.428.428 0 1 0-.856 0v.727a.4.4 0 0 0 .428.428z"/>
    <path data-name="Path 76" d="M5.135 6.761a.4.4 0 0 0 .428-.428v-.727a.428.428 0 0 0-.856 0v.727a.461.461 0 0 0 .428.428z"/>
    <path data-name="Path 77" d="M7.189 6.761a.4.4 0 0 0 .428-.428v-.727a.428.428 0 0 0-.856 0v.727a.461.461 0 0 0 .428.428z"/>
    <path data-name="Path 78" d="M9.243 6.761a.4.4 0 0 0 .428-.428v-.727a.428.428 0 1 0-.856 0v.727a.429.429 0 0 0 .428.428z"/>
    <path data-name="Path 79" d="M5.135 9.714a.4.4 0 0 0 .428-.428v-.727a.428.428 0 0 0-.856 0v.727a.429.429 0 0 0 .428.428z"/>
    <path data-name="Path 80" d="M7.189 9.714a.4.4 0 0 0 .428-.428v-.727a.428.428 0 0 0-.856 0v.727a.429.429 0 0 0 .428.428z"/>
    <path data-name="Path 81" d="M9.243 9.714a.4.4 0 0 0 .428-.428v-.727a.428.428 0 1 0-.856 0v.727a.4.4 0 0 0 .428.428z"/>
    <path data-name="Path 82" d="M5.135 12.709a.4.4 0 0 0 .428-.428v-.727a.428.428 0 0 0-.856 0v.727a.429.429 0 0 0 .428.428z"/>
    <path data-name="Path 83" d="M7.189 12.709a.4.4 0 0 0 .428-.428v-.727a.428.428 0 1 0-.856 0v.727a.429.429 0 0 0 .428.428z"/>
    <path data-name="Path 84" d="M9.243 12.709a.4.4 0 0 0 .428-.428v-.727a.428.428 0 1 0-.856 0v.727a.4.4 0 0 0 .428.428z"/>
    <path data-name="Path 85" d="M5.135 15.705a.4.4 0 0 0 .428-.428v-.727a.428.428 0 1 0-.856 0v.727a.461.461 0 0 0 .428.428z"/>
    <path data-name="Path 86" d="M7.189 15.705a.4.4 0 0 0 .428-.428v-.727a.428.428 0 1 0-.856 0v.727a.461.461 0 0 0 .428.428z"/>
    <path data-name="Path 87" d="M9.243 15.705a.4.4 0 0 0 .428-.428v-.727a.428.428 0 1 0-.856 0v.727a.429.429 0 0 0 .428.428z"/>
    <path data-name="Path 88" d="M7.36 22.423a.4.4 0 0 0-.428.428v3.594a.428.428 0 1 0 .856 0v-3.594a.429.429 0 0 0-.428-.428z"/>
    <path data-name="Path 89" d="M9.372 22.423a.4.4 0 0 0-.428.428v3.594a.428.428 0 1 0 .856 0v-3.594a.4.4 0 0 0-.428-.428z"/>
    <path data-name="Path 90" d="M11.426 22.423a.4.4 0 0 0-.428.428v3.594a.428.428 0 1 0 .856 0v-3.594a.429.429 0 0 0-.428-.428z"/>
    <path data-name="Path 91" d="M13.48 22.423a.4.4 0 0 0-.428.428v3.594a.428.428 0 1 0 .856 0v-3.594a.429.429 0 0 0-.428-.428z"/>
    <path data-name="Path 92" d="M26.917 28.072a.4.4 0 0 0-.428-.428h-1.284v-21.7a.4.4 0 0 0-.428-.428h-9.072a.4.4 0 0 0-.428.428v11.211h-3.038V.423a.4.4 0 0 0-.428-.428H2.525a.4.4 0 0 0-.428.428v27.216H.428a.428.428 0 1 0 0 .856h26.06a.4.4 0 0 0 .428-.428zm-21.31-6.248h9.585v5.82H5.607zm10.527-6.247h8.259v3.552h-8.259zm0 4.408h8.259v3.552h-8.259zm8.258-5.262h-8.259v-3.552h8.259zm-8.259 9.628h8.259v3.3h-8.259zm8.259-17.973v3.894h-8.259V6.378zm-9.2 14.592H5.607v-2.953h9.585zM2.954.858h8.43v16.346h-6.2a.4.4 0 0 0-.428.428v10.056h-1.8z"/>
</svg>
