<svg xmlns="http://www.w3.org/2000/svg" width="19.907" height="19.942" viewBox="0 0 19.907 19.942">
    <path data-name="Icon feather-phone-call" d="M14.52 5.01a4.387 4.387 0 0 1 3.466 3.466M14.52 1.5a7.9 7.9 0 0 1 6.98 6.967m-.877 7V18.1a1.755 1.755 0 0 1-1.913 1.755 17.364 17.364 0 0 1-7.572-2.694A17.11 17.11 0 0 1 5.869 11.9a17.364 17.364 0 0 1-2.694-7.61 1.755 1.755 0 0 1 1.746-1.913h2.632a1.755 1.755 0 0 1 1.755 1.51 11.266 11.266 0 0 0 .614 2.466A1.755 1.755 0 0 1 9.527 8.2L8.413 9.318a14.039 14.039 0 0 0 5.265 5.265l1.114-1.114a1.755 1.755 0 0 1 1.851-.395 11.266 11.266 0 0 0 2.466.614 1.755 1.755 0 0 1 1.509 1.781z" transform="translate(-2.417 -.672)" style="fill:none;stroke:#000;stroke-linecap:round;stroke-linejoin:round;stroke-width:1.5px"/>
</svg>
