<svg data-name="Group 78362" xmlns="http://www.w3.org/2000/svg" width="35" height="35" viewBox="0 0 35 35">
    <path data-name="Path 229216" d="M259.66 385.23a17.5 17.5 0 1 1-17.5-17.5 17.5 17.5 0 0 1 17.5 17.5z" transform="translate(-224.66 -367.73)" style="fill:#fff"/>
    <g data-name="Group 78439">
        <path data-name="Path 229217" d="M17.5 10.111c2.4 0 2.69.01 3.64.053a4.923 4.923 0 0 1 1.674.31 3 3 0 0 1 1.708 1.712 4.975 4.975 0 0 1 .315 1.67c.043.954.052 1.235.052 3.644s-.01 2.69-.052 3.639a5.04 5.04 0 0 1-.315 1.674 2.972 2.972 0 0 1-1.708 1.707 4.914 4.914 0 0 1-1.674.31c-.949.043-1.235.052-3.64.052s-2.69-.01-3.64-.052a4.939 4.939 0 0 1-1.674-.31 2.777 2.777 0 0 1-1.035-.672 2.852 2.852 0 0 1-.677-1.035 5.206 5.206 0 0 1-.31-1.674c-.043-.949-.052-1.235-.052-3.639s.01-2.69.052-3.644a5.139 5.139 0 0 1 .31-1.67 2.849 2.849 0 0 1 .677-1.035 2.789 2.789 0 0 1 1.035-.677 4.949 4.949 0 0 1 1.674-.31c.949-.043 1.235-.053 3.64-.053m0-1.622c-2.447 0-2.752.01-3.716.052a6.534 6.534 0 0 0-2.185.42 4.617 4.617 0 0 0-2.638 2.633 6.846 6.846 0 0 0-.42 2.19c-.043.959-.052 1.269-.052 3.716s.01 2.752.052 3.711a6.791 6.791 0 0 0 .42 2.19 4.606 4.606 0 0 0 2.638 2.638 6.675 6.675 0 0 0 2.185.415c.964.043 1.269.057 3.716.057s2.752-.014 3.716-.057a6.673 6.673 0 0 0 2.185-.415 4.606 4.606 0 0 0 2.638-2.638 6.664 6.664 0 0 0 .42-2.19c.043-.959.052-1.264.052-3.711s-.009-2.757-.052-3.716a6.717 6.717 0 0 0-.42-2.19 4.464 4.464 0 0 0-1.04-1.593 4.417 4.417 0 0 0-1.6-1.04 6.533 6.533 0 0 0-2.185-.42c-.964-.043-1.269-.052-3.716-.052"/>
        <path data-name="Path 229218" d="M17.5 13.426a4.071 4.071 0 1 0 4.069 4.074 4.071 4.071 0 0 0-4.069-4.074m0 6.716a2.643 2.643 0 1 1 2.643-2.643 2.642 2.642 0 0 1-2.643 2.643"/>
        <path data-name="Path 229219" d="M22.652 12.453a1.08 1.08 0 1 1-1.083-1.083 1.081 1.081 0 0 1 1.083 1.083"/>
    </g>
</svg>
