<svg data-name="Group 78360" xmlns="http://www.w3.org/2000/svg" width="35" height="35" viewBox="0 0 35 35">
    <path data-name="Path 229214" d="M158.591 385.23a17.5 17.5 0 1 1-17.5-17.5 17.5 17.5 0 0 1 17.5 17.5z" transform="translate(-123.591 -367.73)" style="fill:#fff"/>
    <path data-name="Path 229215" d="M147.887 372.46a9.809 9.809 0 0 1-2.6.683 4.358 4.358 0 0 0 2-2.4 9.3 9.3 0 0 1-2.881 1.056 4.582 4.582 0 0 0-3.313-1.365 4.427 4.427 0 0 0-4.519 4.31 4.485 4.485 0 0 0 .131.988 13.01 13.01 0 0 1-9.325-4.51 4.18 4.18 0 0 0 1.389 5.761 4.541 4.541 0 0 1-2.046-.533v.055a3.909 3.909 0 0 0 .314 1.552 4.456 4.456 0 0 0 3.323 2.667 4.577 4.577 0 0 1-1.2.164 4.407 4.407 0 0 1-.849-.091 4.544 4.544 0 0 0 4.219 3.013 9.308 9.308 0 0 1-5.6 1.843c-.371 0-.718-.023-1.089-.059a13.337 13.337 0 0 0 6.931 1.939 12.491 12.491 0 0 0 12.563-9.671 11.347 11.347 0 0 0 .3-2.608v-.554a9.151 9.151 0 0 0 2.248-2.239z" transform="translate(-119.366 -361.484)" style="fill-rule:evenodd"/>
</svg>
